<svg width="151" height="19" viewBox="0 0 151 19" fill="none" xmlns="http://www.w3.org/2000/svg">
<path d="M8.696 18.264C6.984 18.264 5.48 17.904 4.184 17.184C2.888 16.448 1.88 15.424 1.16 14.112C0.456 12.8 0.104 11.272 0.104 9.528C0.104 8.216 0.304 7.024 0.704 5.952C1.12 4.88 1.704 3.96 2.456 3.192C3.224 2.424 4.136 1.84 5.192 1.44C6.248 1.024 7.416 0.816 8.696 0.816C10.408 0.816 11.904 1.176 13.184 1.896C14.48 2.616 15.488 3.632 16.208 4.944C16.928 6.24 17.288 7.768 17.288 9.528C17.288 10.84 17.08 12.032 16.664 13.104C16.264 14.176 15.68 15.104 14.912 15.888C14.16 16.656 13.256 17.248 12.2 17.664C11.144 18.064 9.976 18.264 8.696 18.264ZM8.696 14.568C9.544 14.568 10.264 14.368 10.856 13.968C11.448 13.568 11.904 12.992 12.224 12.24C12.544 11.488 12.704 10.584 12.704 9.528C12.704 7.944 12.352 6.712 11.648 5.832C10.944 4.952 9.96 4.512 8.696 4.512C7.864 4.512 7.144 4.712 6.536 5.112C5.944 5.496 5.488 6.064 5.168 6.816C4.848 7.552 4.688 8.456 4.688 9.528C4.688 11.112 5.04 12.352 5.744 13.248C6.448 14.128 7.432 14.568 8.696 14.568ZM24.7434 18.216C24.1994 18.216 23.7274 18.088 23.3274 17.832C22.9274 17.56 22.6074 17.144 22.3674 16.584L19.1034 8.688C18.8954 8.192 18.8234 7.744 18.8874 7.344C18.9514 6.928 19.1434 6.6 19.4634 6.36C19.7994 6.104 20.2554 5.976 20.8314 5.976C21.3274 5.976 21.7354 6.096 22.0554 6.336C22.3754 6.56 22.6634 7.008 22.9194 7.68L25.2234 13.728H24.7194L27.1434 7.224C27.3034 6.792 27.5194 6.48 27.7914 6.288C28.0794 6.08 28.4394 5.976 28.8714 5.976C29.3354 5.976 29.7034 6.08 29.9754 6.288C30.2474 6.496 30.4634 6.808 30.6234 7.224L33.0474 13.728H32.6154L34.9434 7.536C35.1674 6.928 35.4554 6.52 35.8074 6.312C36.1594 6.088 36.5354 5.976 36.9354 5.976C37.4794 5.976 37.8954 6.104 38.1834 6.36C38.4714 6.616 38.6314 6.952 38.6634 7.368C38.7114 7.784 38.6314 8.232 38.4234 8.712L35.1834 16.56C34.9594 17.12 34.6474 17.536 34.2474 17.808C33.8474 18.08 33.3754 18.216 32.8314 18.216C32.2714 18.216 31.7914 18.08 31.3914 17.808C31.0074 17.536 30.6954 17.12 30.4554 16.56L27.8154 9.96H29.5674L27.0714 16.512C26.8474 17.088 26.5434 17.52 26.1594 17.808C25.7754 18.08 25.3034 18.216 24.7434 18.216ZM44.9313 18.264C43.3953 18.264 42.2593 17.856 41.5233 17.04C40.8033 16.208 40.4433 14.96 40.4433 13.296V3.024C40.4433 2.32 40.6273 1.784 40.9953 1.416C41.3633 1.048 41.8833 0.863999 42.5553 0.863999C43.2433 0.863999 43.7713 1.048 44.1393 1.416C44.5233 1.784 44.7153 2.32 44.7153 3.024V13.152C44.7153 13.744 44.8273 14.176 45.0513 14.448C45.2913 14.72 45.5953 14.856 45.9633 14.856C46.0753 14.856 46.1873 14.848 46.2993 14.832C46.4273 14.8 46.5633 14.776 46.7073 14.76C46.9793 14.76 47.1793 14.864 47.3073 15.072C47.4513 15.28 47.5233 15.704 47.5233 16.344C47.5233 16.904 47.4113 17.328 47.1873 17.616C46.9633 17.888 46.6193 18.064 46.1553 18.144C46.0273 18.16 45.8433 18.184 45.6033 18.216C45.3633 18.248 45.1393 18.264 44.9313 18.264ZM58.2463 18C57.4943 18 56.9183 17.808 56.5183 17.424C56.1343 17.024 55.9423 16.456 55.9423 15.72V3.36C55.9423 2.624 56.1343 2.064 56.5183 1.68C56.9183 1.28 57.4943 1.08 58.2463 1.08H64.1023C65.3183 1.08 66.3503 1.264 67.1983 1.632C68.0623 1.984 68.7183 2.488 69.1663 3.144C69.6143 3.8 69.8383 4.568 69.8383 5.448C69.8383 6.44 69.5503 7.288 68.9743 7.992C68.4143 8.696 67.6463 9.176 66.6703 9.432V9.048C67.8223 9.256 68.7103 9.72 69.3343 10.44C69.9743 11.16 70.2943 12.08 70.2943 13.2C70.2943 14.688 69.7583 15.864 68.6863 16.728C67.6303 17.576 66.1823 18 64.3423 18H58.2463ZM60.1663 14.76H63.7423C64.5583 14.76 65.1503 14.608 65.5183 14.304C65.9023 13.984 66.0943 13.512 66.0943 12.888C66.0943 12.264 65.9023 11.8 65.5183 11.496C65.1503 11.192 64.5583 11.04 63.7423 11.04H60.1663V14.76ZM60.1663 7.8H63.3103C64.1103 7.8 64.6943 7.656 65.0623 7.368C65.4463 7.08 65.6383 6.64 65.6383 6.048C65.6383 5.456 65.4463 5.024 65.0623 4.752C64.6943 4.464 64.1103 4.32 63.3103 4.32H60.1663V7.8ZM76.9218 18.264C75.8978 18.264 75.0578 18.08 74.4018 17.712C73.7458 17.328 73.2498 16.76 72.9138 16.008C72.5938 15.256 72.4338 14.304 72.4338 13.152V8.112C72.4338 7.408 72.6178 6.88 72.9858 6.528C73.3538 6.16 73.8818 5.976 74.5698 5.976C75.2578 5.976 75.7858 6.16 76.1538 6.528C76.5218 6.88 76.7058 7.408 76.7058 8.112V13.272C76.7058 13.848 76.8258 14.28 77.0658 14.568C77.3058 14.856 77.6818 15 78.1938 15C78.7698 15 79.2418 14.792 79.6098 14.376C79.9778 13.96 80.1618 13.408 80.1618 12.72V8.112C80.1618 7.408 80.3458 6.88 80.7138 6.528C81.0818 6.16 81.6098 5.976 82.2978 5.976C82.9858 5.976 83.5138 6.16 83.8818 6.528C84.2498 6.88 84.4338 7.408 84.4338 8.112V16.056C84.4338 17.496 83.7458 18.216 82.3698 18.216C81.6978 18.216 81.1778 18.032 80.8098 17.664C80.4418 17.296 80.2578 16.76 80.2578 16.056V14.664L80.6418 15.84C80.2898 16.624 79.7938 17.224 79.1538 17.64C78.5298 18.056 77.7858 18.264 76.9218 18.264ZM89.0319 18.216C88.3599 18.216 87.8399 18.016 87.4719 17.616C87.1039 17.216 86.9199 16.64 86.9199 15.888V8.304C86.9199 7.552 87.1039 6.976 87.4719 6.576C87.8399 6.176 88.3599 5.976 89.0319 5.976C89.7199 5.976 90.2479 6.176 90.6159 6.576C90.9999 6.976 91.1919 7.552 91.1919 8.304V15.888C91.1919 16.64 91.0079 17.216 90.6399 17.616C90.2719 18.016 89.7359 18.216 89.0319 18.216ZM89.0319 4.272C88.2799 4.272 87.6959 4.096 87.2799 3.744C86.8799 3.392 86.6799 2.88 86.6799 2.208C86.6799 1.552 86.8799 1.048 87.2799 0.696C87.6959 0.343999 88.2799 0.167999 89.0319 0.167999C89.8159 0.167999 90.4079 0.343999 90.8079 0.696C91.2079 1.048 91.4079 1.552 91.4079 2.208C91.4079 2.88 91.2079 3.392 90.8079 3.744C90.4079 4.096 89.8159 4.272 89.0319 4.272ZM98.1579 18.264C96.6219 18.264 95.4859 17.856 94.7499 17.04C94.0299 16.208 93.6699 14.96 93.6699 13.296V3.024C93.6699 2.32 93.8539 1.784 94.2219 1.416C94.5899 1.048 95.1099 0.863999 95.7819 0.863999C96.4699 0.863999 96.9979 1.048 97.3659 1.416C97.7499 1.784 97.9419 2.32 97.9419 3.024V13.152C97.9419 13.744 98.0539 14.176 98.2779 14.448C98.5179 14.72 98.8219 14.856 99.1899 14.856C99.3019 14.856 99.4139 14.848 99.5259 14.832C99.6539 14.8 99.7899 14.776 99.9339 14.76C100.206 14.76 100.406 14.864 100.534 15.072C100.678 15.28 100.75 15.704 100.75 16.344C100.75 16.904 100.638 17.328 100.414 17.616C100.19 17.888 99.8459 18.064 99.3819 18.144C99.2539 18.16 99.0699 18.184 98.8299 18.216C98.5899 18.248 98.3659 18.264 98.1579 18.264ZM106.504 18.264C105.496 18.264 104.6 18.016 103.816 17.52C103.048 17.024 102.44 16.312 101.992 15.384C101.56 14.456 101.344 13.36 101.344 12.096C101.344 10.8 101.56 9.696 101.992 8.784C102.44 7.872 103.048 7.168 103.816 6.672C104.6 6.176 105.496 5.928 106.504 5.928C107.384 5.928 108.176 6.136 108.88 6.552C109.584 6.968 110.056 7.504 110.296 8.16H110.032V3.024C110.032 2.32 110.216 1.784 110.584 1.416C110.952 1.048 111.48 0.863999 112.168 0.863999C112.84 0.863999 113.36 1.048 113.728 1.416C114.112 1.784 114.304 2.32 114.304 3.024V16.056C114.304 16.76 114.12 17.296 113.752 17.664C113.4 18.032 112.88 18.216 112.192 18.216C111.52 18.216 111 18.032 110.632 17.664C110.264 17.296 110.08 16.76 110.08 16.056V14.688L110.344 15.864C110.12 16.584 109.648 17.168 108.928 17.616C108.224 18.048 107.416 18.264 106.504 18.264ZM107.872 15.12C108.304 15.12 108.688 15.016 109.024 14.808C109.36 14.584 109.616 14.256 109.792 13.824C109.984 13.376 110.08 12.8 110.08 12.096C110.08 11.024 109.872 10.256 109.456 9.792C109.04 9.312 108.512 9.072 107.872 9.072C107.44 9.072 107.056 9.176 106.72 9.384C106.384 9.592 106.12 9.92 105.928 10.368C105.736 10.8 105.64 11.376 105.64 12.096C105.64 13.152 105.848 13.92 106.264 14.4C106.68 14.88 107.216 15.12 107.872 15.12ZM123.211 18.264C121.771 18.264 120.523 18.016 119.467 17.52C118.427 17.008 117.627 16.288 117.067 15.36C116.507 14.432 116.227 13.336 116.227 12.072C116.227 10.856 116.491 9.792 117.019 8.88C117.563 7.952 118.299 7.232 119.227 6.72C120.171 6.192 121.243 5.928 122.443 5.928C123.323 5.928 124.123 6.072 124.843 6.36C125.563 6.632 126.179 7.04 126.691 7.584C127.203 8.112 127.587 8.752 127.843 9.504C128.115 10.256 128.251 11.096 128.251 12.024C128.251 12.344 128.163 12.584 127.987 12.744C127.811 12.888 127.531 12.96 127.147 12.96H119.803V10.944H125.131L124.747 11.256C124.747 10.664 124.667 10.184 124.507 9.816C124.347 9.448 124.107 9.168 123.787 8.976C123.483 8.784 123.099 8.688 122.635 8.688C122.139 8.688 121.707 8.808 121.339 9.048C120.987 9.272 120.715 9.608 120.523 10.056C120.331 10.504 120.235 11.064 120.235 11.736V11.952C120.235 13.088 120.483 13.904 120.979 14.4C121.491 14.88 122.275 15.12 123.331 15.12C123.683 15.12 124.083 15.08 124.531 15C124.995 14.904 125.435 14.776 125.851 14.616C126.267 14.456 126.627 14.432 126.931 14.544C127.235 14.64 127.467 14.816 127.627 15.072C127.803 15.312 127.899 15.592 127.915 15.912C127.931 16.216 127.859 16.52 127.699 16.824C127.539 17.112 127.275 17.336 126.907 17.496C126.347 17.752 125.747 17.944 125.107 18.072C124.483 18.2 123.851 18.264 123.211 18.264ZM132.276 18.216C131.572 18.216 131.028 18.032 130.644 17.664C130.276 17.296 130.092 16.76 130.092 16.056V8.112C130.092 7.424 130.268 6.896 130.62 6.528C130.988 6.16 131.508 5.976 132.18 5.976C132.852 5.976 133.364 6.16 133.716 6.528C134.068 6.896 134.244 7.424 134.244 8.112V9.096H134.004C134.164 8.136 134.572 7.376 135.228 6.816C135.9 6.256 136.732 5.96 137.724 5.928C138.188 5.912 138.532 6.032 138.756 6.288C138.996 6.528 139.124 6.984 139.14 7.656C139.14 8.232 139.02 8.688 138.78 9.024C138.54 9.36 138.084 9.56 137.412 9.624L136.86 9.672C136.012 9.752 135.396 9.992 135.012 10.392C134.628 10.776 134.436 11.352 134.436 12.12V16.056C134.436 16.76 134.252 17.296 133.884 17.664C133.516 18.032 132.98 18.216 132.276 18.216ZM145.085 18.264C144.381 18.264 143.661 18.208 142.925 18.096C142.205 18 141.549 17.816 140.957 17.544C140.557 17.384 140.269 17.168 140.093 16.896C139.933 16.624 139.853 16.336 139.853 16.032C139.869 15.728 139.957 15.456 140.117 15.216C140.293 14.96 140.517 14.784 140.789 14.688C141.077 14.576 141.397 14.584 141.749 14.712C142.421 14.952 143.021 15.128 143.549 15.24C144.093 15.336 144.613 15.384 145.109 15.384C145.701 15.384 146.125 15.304 146.381 15.144C146.637 14.968 146.765 14.744 146.765 14.472C146.765 14.232 146.677 14.048 146.501 13.92C146.341 13.792 146.109 13.704 145.805 13.656L143.141 13.224C142.149 13.048 141.381 12.688 140.837 12.144C140.293 11.584 140.021 10.856 140.021 9.96C140.021 9.128 140.253 8.416 140.717 7.824C141.197 7.216 141.845 6.752 142.661 6.432C143.493 6.096 144.445 5.928 145.517 5.928C146.237 5.928 146.893 5.984 147.485 6.096C148.077 6.192 148.653 6.376 149.213 6.648C149.565 6.792 149.813 7 149.957 7.272C150.101 7.544 150.157 7.832 150.125 8.136C150.093 8.424 149.989 8.696 149.813 8.952C149.653 9.192 149.429 9.36 149.141 9.456C148.853 9.536 148.517 9.512 148.133 9.384C147.605 9.176 147.133 9.024 146.717 8.928C146.317 8.832 145.941 8.784 145.589 8.784C144.933 8.784 144.469 8.872 144.197 9.048C143.925 9.224 143.789 9.448 143.789 9.72C143.789 9.928 143.861 10.104 144.005 10.248C144.149 10.376 144.373 10.464 144.677 10.512L147.341 10.968C148.365 11.128 149.149 11.48 149.693 12.024C150.253 12.552 150.533 13.272 150.533 14.184C150.533 15.48 150.037 16.488 149.045 17.208C148.053 17.912 146.733 18.264 145.085 18.264Z" fill="#EDEDED"/>
</svg>
